<?xml version="1.0" encoding="UTF-8"?>
<svg width="512" height="512" viewBox="0 0 512 512" fill="none" xmlns="http://www.w3.org/2000/svg" role="img" aria-labelledby="title desc">
  <title id="title">Achtlet app icon</title>
  <desc id="desc">A text-free figure-eight latch mark for Achtlet.</desc>
  <defs>
    <linearGradient id="bg" x1="96" y1="52" x2="432" y2="464" gradientUnits="userSpaceOnUse">
      <stop stop-color="#18392F"/>
      <stop offset="0.55" stop-color="#112820"/>
      <stop offset="1" stop-color="#0E1B18"/>
    </linearGradient>
    <linearGradient id="paper" x1="150" y1="86" x2="368" y2="428" gradientUnits="userSpaceOnUse">
      <stop stop-color="#FFF8EA"/>
      <stop offset="1" stop-color="#EAE0CF"/>
    </linearGradient>
    <linearGradient id="latch" x1="188" y1="248" x2="330" y2="284" gradientUnits="userSpaceOnUse">
      <stop stop-color="#FFB86B"/>
      <stop offset="1" stop-color="#F15A3B"/>
    </linearGradient>
    <filter id="softShadow" x="96" y="54" width="320" height="408" filterUnits="userSpaceOnUse" color-interpolation-filters="sRGB">
      <feDropShadow dx="0" dy="18" stdDeviation="18" flood-color="#06100D" flood-opacity="0.38"/>
    </filter>
  </defs>

  <rect width="512" height="512" rx="112" fill="url(#bg)"/>
  <path d="M82 168C116 104 181 66 256 66C361 66 446 151 446 256C446 331 404 397 342 429" stroke="#285445" stroke-width="18" stroke-linecap="round" opacity="0.45"/>
  <path d="M86 348C55 279 67 199 118 142" stroke="#F15A3B" stroke-width="16" stroke-linecap="round" opacity="0.9"/>
  <circle cx="398" cy="118" r="18" fill="#FFB86B"/>
  <circle cx="111" cy="400" r="13" fill="#FFF8EA" opacity="0.86"/>

  <g filter="url(#softShadow)">
    <circle cx="256" cy="172" r="92" fill="url(#paper)"/>
    <circle cx="256" cy="340" r="92" fill="url(#paper)"/>
    <circle cx="256" cy="172" r="42" fill="#17362D"/>
    <circle cx="256" cy="340" r="42" fill="#17362D"/>
    <rect x="222" y="222" width="68" height="68" rx="28" fill="url(#paper)"/>
    <circle cx="256" cy="256" r="21" fill="#17362D"/>
    <path d="M196 256H316" stroke="url(#latch)" stroke-width="30" stroke-linecap="round"/>
    <circle cx="316" cy="256" r="28" fill="#FFF8EA"/>
    <circle cx="316" cy="256" r="15" fill="#F15A3B"/>
  </g>

  <path d="M148 82L364 430" stroke="#FFF8EA" stroke-width="2" stroke-linecap="round" opacity="0.18"/>
</svg>
